<?xml version="1.0" encoding="UTF-8" standalone="no"?><!DOCTYPE svg PUBLIC "-//W3C//DTD SVG 1.1//EN" "http://www.w3.org/Graphics/SVG/1.1/DTD/svg11.dtd"><svg width="100%" height="100%" viewBox="0 0 220 55" version="1.1" xmlns="http://www.w3.org/2000/svg" xmlns:xlink="http://www.w3.org/1999/xlink" xml:space="preserve" xmlns:serif="http://www.serif.com/" style="fill-rule:evenodd;clip-rule:evenodd;stroke-linejoin:round;stroke-miterlimit:2;"><g id="image.png"><path d="M8.47,2.082c3.077,0.274 195.144,1.979 195.115,1.492c0,0 14.94,-0.711 15.412,1.973c0.756,4.3 -7.254,38.765 -7.976,42.163c-0.267,1.258 -0.903,0.648 -13.21,0.735c-1.249,0.009 -0.626,0.699 -0.742,5.784c-0.018,0.8 -19.582,-2.413 -27.954,-3.405c-0.555,-0.066 -38.737,-5.026 -63.135,-4.43c-23.606,0.576 -82.328,7.976 -83.253,8.004c-0.771,0.023 -0.381,-0.453 -0.44,-5.474c-0.008,-0.699 -2.857,-0.429 -12.83,-0.403c-1.565,0.004 -0.989,-0.909 -3.955,-15.248c-1.878,-9.08 -5.672,-25.494 -5.494,-27.75c0.096,-1.221 2.834,-3.943 8.464,-3.442Z" style="fill:#050403;"/><g><path d="M45.872,8.065c118.991,0.584 166.275,-0.809 166.533,-0.289c0.079,0.16 -6.287,34.99 -6.861,35.154c-0.446,0.127 -15.758,-0.768 -16.026,-0.108c-0.21,0.517 0.315,5.764 -0.626,5.694c-28.178,-2.098 -57.831,-12.015 -124.21,-4.15c-2.758,0.327 -34.447,4.081 -34.477,4.061c-0.567,-0.39 0.195,-5.847 -0.712,-5.903c-1.888,-0.117 -15.687,0.674 -15.835,0.046c-0.042,-0.178 -6.688,-33.979 -6.774,-34.609c-0.07,-0.513 0.326,-0.446 16.075,-0.131c5.933,0.119 21.081,0.225 22.914,0.237Z" style="fill:#d90060;"/><path d="M159.465,19.732c1.288,0.125 1.397,-0.029 1.57,0.333c0.519,1.086 0.145,12.133 0.109,13.187c-0.044,1.287 -2.592,0.609 -2.677,0.6c0.338,-0.626 0.321,-0.604 0.32,-1.322c-0.012,-5.903 -0.062,-9.692 -0.002,-10.602c0.044,-0.66 1.661,-0.617 1.675,-0.689c0.023,-0.118 -0.259,-0.155 -0.236,-0.274c0.088,-0.287 0.194,-0.298 -0.033,-0.497c-0.025,-0.032 0.033,-0.083 -0.726,-0.735Z" style="fill:#d90060;"/><path d="M144.135,20.716c0.015,5.306 0.011,5.258 -0.012,10.607c-0.01,2.402 -1.233,1.596 -2.764,1.541c0.071,-0.274 0.3,-0.038 0.377,-0.335c0.024,-0.093 0.015,-0.058 0.022,-1.207c0.056,-8.666 0,-8.655 0.011,-9.407c0.019,-1.348 0.86,-0.461 2.366,-1.199Z" style="fill:#d90060;"/><path d="M48.226,21.19c0.018,3.475 0.25,3.508 -0.126,4.373c-0.336,0.773 -0.574,0.387 -2.219,0.496c-0.019,-0.645 -0.045,-0.612 -0.036,-1.249c0.043,-3.04 -0.312,-5.006 2.381,-3.621Z" style="fill:#d90060;"/><path d="M113.039,20.976l0.11,0.701c-0.006,-0.017 -0.43,0.027 -0.11,-0.701Z" style="fill:#d90060;"/><path d="M48.195,0c0.164,0.105 0.207,0.065 0.136,0.264l-0.136,-0.264Z" style="fill:#d90060;"/><path d="M160.191,20.467c0.227,0.2 0.121,0.21 0.033,0.497c-0.011,-0.166 -0.022,-0.332 -0.033,-0.497Z" style="fill:#d90060;"/></g><g><path d="M166.726,17.576c0.417,19.176 0.244,19.411 -0.743,20.747c-1.274,1.725 -10.23,1.482 -12.764,-0.754c-1.009,-1.764 -0.916,-1.802 -0.919,-4.318c-0.024,-16.825 -0.568,-18.763 3.546,-18.862c9.772,-0.233 10.271,0.512 10.88,3.186Z" style="fill:#fff;"/><path d="M149.719,17.332c0.163,18.304 0.034,18.326 -0.442,19.265c-1.324,2.613 -11.052,1.721 -13.116,-0.067c-1.399,-2.212 -1.018,-2.344 -0.992,-4.967c0.128,-13.297 -1.043,-17.266 3.556,-17.329c8.882,-0.122 10.318,-0.2 10.994,3.098Z" style="fill:#fff;"/><path d="M53.707,17.328c0.121,10.011 0.622,10.571 -1.935,12.669c-0.432,0.354 -0.095,0.453 0.468,2.258c2.059,5.974 2.061,6.01 2.092,6.56c-0.691,0.565 -4.833,0.585 -5.322,0.601c-0.538,-0.594 -0.315,-0.706 -2.351,-6.893c-0.059,-0.162 -0.992,-2.726 -1.572,-1.478c-0.218,0.467 -0.006,7.546 -0.171,8.242c-0.131,0.551 -4.477,0.686 -5.071,0.734c-0.554,-0.343 -0.53,-0.53 -0.498,-22.684c0.002,-1.501 -0.269,-3.22 0.736,-3.223c11.073,-0.035 13.007,-0.53 13.626,3.216Z" style="fill:#fff;"/><path d="M84.201,15.404c-0.039,21.446 0.326,22.088 -0.712,22.149c-4.198,0.247 -4.2,0.013 -4.295,-0.017c-2.598,-6.572 -3.836,-14.971 -3.713,-8.143c0.012,0.653 0.141,7.843 -0.027,8.164c-0.257,0.49 -3.894,0.467 -4.741,0.498c-0.708,-0.4 -0.379,-0.669 -0.478,-20.72c-0.001,-0.26 -0.016,-3.144 0.461,-3.222c0.234,-0.038 4.263,-0.232 4.536,0.358c2.697,5.84 3.568,13.894 3.588,7.445c0.023,-7.087 -0.65,-7.796 0.563,-7.814c0.683,-0.01 4.262,-0 4.372,0.007c0.396,0.026 0.248,0.203 0.445,1.294Z" style="fill:#fff;"/><path d="M67.669,15.651c-0.081,3.081 0.464,3.643 -0.567,3.667c-0.36,0.009 -4.959,-0.288 -4.979,0.673c-0.006,0.287 -0.068,3.276 0.011,3.588c0.109,0.429 0.232,0.265 0.628,0.365c0.306,-0.004 3.769,-0.046 3.827,-0.019c0.458,0.212 0.247,0.334 0.335,1.129c-0.027,3.056 0.369,3.357 -0.334,3.564c-0.31,0.091 -4.463,-0.27 -4.465,1.018c-0,0.268 -0.003,3.291 0.019,3.348c0.171,0.454 0.286,0.254 0.861,0.329c4.407,-0.076 4.401,-0.131 4.562,-0.034c0.461,0.275 0.224,0.398 0.257,1.663c-0.152,2.315 0.781,3.224 -0.976,3.301c-5.067,0.223 -5.022,0.478 -10.114,0.521c-0.716,-0.994 -0.32,-1.132 -0.374,-22.151c-0.001,-0.207 -0.006,-2.508 0.595,-2.513c0.812,-0.007 8.436,-0.076 10.15,0.029c0.98,0.06 0.51,0.532 0.564,1.523Z" style="fill:#fff;"/><path d="M175.175,16.134c-0.065,18.35 -0.158,18.755 0.69,18.947c0.365,0.028 4.437,0.339 4.561,0.39c0.463,0.191 0.243,0.327 0.332,1.404c-0.004,0.332 -0.047,4.022 -0.287,4.136c-0.362,0.172 -0.351,0.03 -9.906,-0.841c-0.973,-0.224 -1.151,-0.265 -1.142,-1.37c0.19,-23.68 -0.228,-24.289 0.658,-24.293c3.275,-0.017 4.812,-1.616 5.094,1.628Z" style="fill:#fff;"/><path d="M133.255,15.655c-0.005,0.318 -0.06,3.94 -0.554,3.937c-2.679,-0.015 -3.167,-0.501 -3.188,0.388c-0.028,1.167 0.031,15.389 -0.046,16.631c-0.032,0.522 -4.357,0.412 -4.737,0.403c-2.279,-0.514 -0.972,-1.449 -0.987,-3.762c-0.009,-1.346 0.011,-11.097 0.013,-12.062c-0.01,-1.416 0.06,-1.422 -0.093,-1.567c-0.159,-0.151 -0.161,-0.083 -2.789,-0.17c-1.528,-0.546 -0.698,-5.19 -0.472,-5.239c0.4,-0.086 12.15,-0.041 12.296,-0.038c0.966,0.022 0.494,0.511 0.558,1.478Z" style="fill:#fff;"/><path d="M98.872,15.633c-0.011,1.103 0.228,3.814 -0.667,3.813c-2.284,-0.001 -2.601,-0.456 -2.847,0.315c-0.349,1.093 0.657,17.443 -0.54,17.494c-0.365,0.016 -0.339,0.005 -4.572,0.062c-0.635,-0.289 -0.534,-0.517 -0.536,-16.13c-0.026,-1.274 0.18,-1.331 -0.216,-1.635c-0.192,-0.148 -0.186,-0.076 -2.88,-0.137c-1.092,-0.4 -0.816,-5.291 0.01,-5.299c5.609,-0.05 10.435,-0 11.343,0.009c1.108,0.011 0.831,0.442 0.905,1.508Z" style="fill:#fff;"/><path d="M112.14,19.753c3.032,14.608 3.968,15.422 2.713,15.466c-1.711,0.059 -1.681,0.131 -3.373,-0.068c-0.627,-0.693 -0.409,-0.758 -0.645,-1.412c-0.408,-1.842 -0.84,-1.747 -2.736,-1.662c-0.426,0.019 -0.932,2.178 -0.979,2.379c-0.288,1.23 -2.501,0.825 -3.365,0.83c-1.497,-0.217 -0.76,-1.024 2.041,-15.031c0.678,-3.391 1.979,-2.207 5.444,-2.03c1.055,0.054 0.646,0.518 0.9,1.527Z" style="fill:#fff;"/><path d="M187.656,34.45c1.123,-3.319 1.973,-5.252 1.433,-5.731c-2.203,-1.952 -4.893,-3.541 -5.345,-3.808c-1.558,-0.92 1.173,-0.669 6.59,-0.673c1.123,-0.001 2.295,-5.777 2.95,-7.083c0.394,-0.785 0.392,0.266 2.423,6.186c0.387,1.128 2.411,0.914 6.447,0.943c3.262,0.023 -0.205,1.307 -4.311,4.424c-0.295,0.224 -0.39,0.37 1.479,6.214c0.843,2.638 -1.163,0.225 -5.399,-2.589c-0.709,-0.471 -0.977,0.015 -5.958,3.422c-1.322,0.904 -0.486,-0.795 -0.309,-1.305Z" style="fill:#fff;"/><path d="M31.168,33.491c0.061,0.186 0.933,2.859 0.228,2.429c-2.799,-1.707 -5.045,-4.454 -6.686,-3.305c-4.467,3.127 -5.699,4.673 -5.199,3.044c1.595,-5.2 3.397,-5.765 0.954,-7.598c-3.55,-2.664 -6.719,-3.807 -3.779,-3.816c6.185,-0.019 6.531,-0.108 6.655,-0.445c1.984,-5.39 2.207,-7.863 2.864,-5.782c1.795,5.688 1.855,6.18 3.27,6.206c5.649,0.102 7.463,-0.405 6.177,0.495c-2.869,2.006 -2.84,1.949 -5.603,4.047c-0.307,0.233 1.001,4.355 1.119,4.726Z" style="fill:#fff;"/></g><g><path d="M166.726,17.576c1.356,1.121 0.931,1.423 0.946,10.612c0.017,10.525 1.192,13.588 -5.077,13.066c-5.097,-0.424 -9.616,-0.013 -9.375,-3.685c2.534,2.236 11.49,2.479 12.764,0.754c0.986,-1.336 1.16,-1.571 0.743,-20.747Z" style="fill:#130d0b;"/><path d="M149.719,17.332c0.47,0.5 0.922,0.383 0.918,3.137c-0.019,17.065 0.133,17.183 -0.609,18.31c-1.588,2.412 -12.167,1.113 -13.378,-0.538c-0.845,-1.152 -0.542,-1.252 -0.489,-1.712c2.064,1.788 11.792,2.68 13.116,0.067c0.476,-0.939 0.605,-0.961 0.442,-19.265Z" style="fill:#100a09;"/><path d="M133.255,15.655c1.248,0.206 0.995,1.439 0.9,5.058c-0.038,1.434 -3.712,-0.181 -3.741,1.192c-0.188,9.144 0.377,17.077 -0.618,17.047c-2.591,-0.079 -5.257,-0.045 -5.29,-0.635c-0.04,-0.709 0.111,-0.642 0.224,-1.301c0.38,0.01 4.705,0.12 4.737,-0.403c0.076,-1.243 0.018,-15.465 0.046,-16.631c0.021,-0.889 0.509,-0.403 3.188,-0.388c0.494,0.003 0.549,-3.619 0.554,-3.937Z" style="fill:#0e0908;"/><path d="M98.872,15.633c1.511,-0.07 0.951,3.525 0.923,4.594c-0.038,1.406 -2.654,0.803 -3.284,0.951c-0.997,0.234 -0.367,0.755 -0.32,12.799c0.013,3.295 1.485,4.924 -1.844,5.04c-2.723,0.095 -3.867,1.014 -4.101,-1.7c4.234,-0.057 4.207,-0.046 4.572,-0.062c1.197,-0.051 0.191,-16.401 0.54,-17.494c0.246,-0.77 0.563,-0.316 2.847,-0.315c0.896,0.001 0.656,-2.71 0.667,-3.813Z" style="fill:#190c0b;"/><path d="M84.201,15.404c0.072,0.012 0.876,-0.054 0.883,0.734c0.009,1.019 0.042,22.049 -0.076,22.924c-0.076,0.56 -5.005,0.676 -5.179,0.253c-0.057,-0.14 -0.034,-0.121 -0.635,-1.778c0.095,0.029 0.097,0.263 4.295,0.017c1.037,-0.061 0.673,-0.703 0.712,-22.149Z" style="fill:#160a08;"/><path d="M67.824,34.942c1.292,0.111 0.923,1.501 0.744,4.584c-0.054,0.94 -2.645,0.794 -9.431,1.224c-0.177,0.011 -2.182,0.138 -2.162,-0.503c0.012,-0.405 0.273,-0.546 -0.242,-1.483c5.092,-0.043 5.047,-0.298 10.114,-0.521c1.757,-0.077 0.824,-0.986 0.976,-3.301Z" style="fill:#0d0706;"/><path d="M180.758,36.875c2.929,1.316 0.945,2.327 0.888,5.542c-0.015,0.849 -0.551,0.64 -10.608,-0.451c-0.831,-0.09 -1.803,-1.104 -0.473,-1.796c9.555,0.872 9.545,1.013 9.906,0.841c0.24,-0.114 0.283,-3.804 0.287,-4.136Z" style="fill:#0f0808;"/><path d="M46.658,32.521c-1.87,0.885 0.184,9.152 -1.506,9.225c-3.31,0.143 -4.978,2.033 -5.179,-1.297c-0.002,-0.036 0,0 -0.13,-0.431c0.594,-0.048 4.941,-0.183 5.071,-0.734c0.165,-0.696 -0.047,-7.774 0.171,-8.242c0.581,-1.247 1.513,1.316 1.572,1.478Z" style="fill:#120b0a;"/><path d="M175.175,16.134c0.662,0.005 0.919,-0.206 0.929,0.478c0.025,1.84 -0.019,8.953 -0.01,12.541c0.008,3.212 0.153,5.431 -0.229,5.929c-0.848,-0.192 -0.755,-0.597 -0.69,-18.947Z" style="fill:#150c0b;"/><path d="M144.135,20.716c0.298,1.637 -1.627,0.091 -1.646,1.439c-0.011,0.752 0.045,0.261 -0.011,8.927c-0.007,1.149 0.242,1.353 0.218,1.447c-0.077,0.297 -1.337,0.335 -1.337,0.335c0,0 -0.615,-0.089 -0.608,-1.06c0.069,-8.842 -0.064,-10.358 0.047,-11.833c0.035,-0.464 2.868,-1.827 3.337,0.744Z" style="fill:#1c0e0c;"/><path d="M161.655,21.916c0.298,1.637 -1.627,0.091 -1.646,1.439c-0.011,0.752 0.045,0.261 -0.011,8.927c-0.007,1.149 0.242,1.353 0.218,1.447c-0.077,0.297 -1.337,0.335 -1.337,0.335c0,0 -0.615,-0.089 -0.608,-1.06c0.069,-8.842 -0.064,-10.358 0.047,-11.833c0.035,-0.464 2.868,-1.827 3.337,0.744Z" style="fill:#1c0e0c;"/><path d="M112.14,19.753c0.638,0.45 1.003,1.908 1.009,1.925c2.077,8.544 3.441,13.732 3.528,14.95c0.034,0.481 -3.271,0.496 -3.517,0.497c-1.521,0.008 -1.266,-0.518 -1.68,-1.974c1.692,0.2 1.662,0.127 3.373,0.068c1.255,-0.043 0.319,-0.857 -2.713,-15.466Z" style="fill:#2f1816;"/><path d="M67.669,15.651c1.748,0.679 0.906,1.25 0.872,3.131c-0.059,3.277 -1.527,2.266 -4.824,2.318c-1.123,0.018 -0.64,0.576 -0.955,2.845c-0.396,-0.1 -0.519,0.064 -0.628,-0.365c-0.08,-0.313 -0.017,-3.301 -0.011,-3.588c0.02,-0.961 4.619,-0.665 4.979,-0.673c1.031,-0.025 0.486,-0.586 0.567,-3.667Z" style="fill:#1c100f;"/><path d="M66.924,25.054c2.044,0.79 0.884,4.709 0.767,5.105c-0.208,0.704 -4.739,0.001 -4.762,1.159c-0.021,1.021 0.037,0.982 0.075,1.995c-0.575,-0.075 -0.69,0.125 -0.861,-0.329c-0.022,-0.057 -0.019,-3.081 -0.019,-3.348c0.001,-1.287 4.155,-0.927 4.465,-1.018c0.704,-0.206 0.307,-0.508 0.334,-3.564Z" style="fill:#1b110f;"/><path d="M110.834,33.738c-2.051,0.213 -2.359,-0.058 -2.492,0.722c-0.036,0.211 -0.419,2.467 -0.753,2.571c-0.647,0.202 -4.295,0.248 -4.155,-0.407c0.104,-0.486 0.04,-0.441 0.103,-0.93c0.02,-0.153 0.198,-0.255 0.218,-0.408c0.864,-0.005 3.077,0.399 3.365,-0.83c0.047,-0.2 0.552,-2.359 0.979,-2.379c1.895,-0.086 2.328,-0.181 2.736,1.662Z" style="fill:#130b0a;"/><path d="M53.707,17.328c1.328,0.851 1.494,12.115 -0.164,13.95c-0.087,0.097 -0.131,0.145 -1.304,0.976c-0.563,-1.804 -0.9,-1.903 -0.468,-2.258c2.557,-2.097 2.057,-2.658 1.935,-12.669Z" style="fill:#180d0b;"/><path d="M54.331,38.814c0.756,0.174 1.458,2.148 -0.026,2.281c-3.421,0.305 -5.004,1.784 -5.296,-1.68c0.489,-0.016 4.631,-0.036 5.322,-0.601Z" style="fill:#0f0707;"/><path d="M48.226,21.19c-0.351,0.518 -1.829,0.52 -1.901,3.621c-0.015,0.637 0.154,1.296 -0.444,1.249c-0.655,-0.051 -0.888,0.117 -0.9,-0.53c-0.11,-5.881 0.059,-6.336 0.646,-6.331c0.188,0.001 2.135,0.015 2.34,0.163c0.187,0.135 1.211,0.423 0.259,1.829Z" style="fill:#140e0d;"/><path d="M109.111,22.235c0.563,0.164 0.582,0.306 1.216,6.154c0.094,0.867 -2.254,0.733 -2.146,-0.001c0.839,-5.671 0.865,-5.66 0.93,-6.153Z" style="fill:#312120;"/><path d="M86.614,19.415c2.693,0.061 2.688,-0.011 2.88,0.137c0.396,0.304 0.191,0.361 0.216,1.635c-1.55,-0.34 -3.362,0.995 -3.096,-1.772Z"/><path d="M120.873,19.453c2.628,0.088 2.63,0.019 2.789,0.17c0.153,0.145 0.083,0.151 0.093,1.567c-1.627,-0.295 -3.366,0.832 -2.882,-1.737Z" style="fill:#180605;"/></g></g></svg>