<?xml version="1.0" encoding="UTF-8" standalone="no"?><!DOCTYPE svg PUBLIC "-//W3C//DTD SVG 1.1//EN" "http://www.w3.org/Graphics/SVG/1.1/DTD/svg11.dtd"><svg width="100%" height="100%" viewBox="0 0 220 198" version="1.1" xmlns="http://www.w3.org/2000/svg" xmlns:xlink="http://www.w3.org/1999/xlink" xml:space="preserve" xmlns:serif="http://www.serif.com/" style="fill-rule:evenodd;clip-rule:evenodd;stroke-linejoin:round;stroke-miterlimit:2;"><g id="image.png"><path d="M190.065,31.117c-0.014,-1.046 -0.143,-4.823 0.083,-4.976c0.185,-0.126 15.943,-0.062 16.073,-0.015c0.595,0.215 0.007,93.716 0.241,97.12c0.084,1.227 12.212,4.442 12.772,5.093c0.672,0.781 -7.494,39.245 -8.216,42.643c-0.267,1.258 -0.903,0.648 -13.21,0.735c-1.249,0.009 -0.626,0.699 -0.742,5.784c-0.018,0.8 -19.582,-2.413 -27.954,-3.405c-1.074,-0.127 -57.758,23.498 -58.858,23.884c-1.349,0.473 -40.943,-16.777 -58.579,-23.89c-1.09,-0.44 -27.036,3.523 -28.952,3.58c-0.771,0.023 -0.381,-0.453 -0.44,-5.474c-0.008,-0.699 -2.857,-0.429 -12.83,-0.403c-1.565,0.004 -0.989,-0.909 -3.955,-15.248c-1.878,-9.08 -5.064,-25.528 -5.494,-27.75c-0.144,-0.741 3.118,-1.605 8.464,-3.442c3,-1.031 4.227,-0.393 4.224,-3.56c-0.007,-7.621 -0.082,-91.647 -0.005,-95.257c0.015,-0.692 1.3,-0.533 2.074,-0.527c25.634,0.197 112.357,-0.275 112.323,0.272c-0.013,0.213 -12.953,14.08 -14.088,15.296c-0.987,-1.481 0.797,-10.723 -0.303,-10.997c-0.468,-0.117 -14.654,-0.132 -15.928,-0.133c-0.871,-0.001 -0.721,0.549 0.283,10.884c-0.165,0.043 -6.475,1.74 -7.038,1.891c-1.984,-6.819 -2.852,-12.804 -4.103,-12.83c-0.984,-0.021 -11.637,-0.245 -12.298,0.003c-0.726,0.273 4.911,11.893 5.533,15.152c-2.188,0.748 -2.844,1.819 -5.476,4.224c-8.992,-14.905 -10.751,-19.47 -11.875,-19.468c-16.059,0.018 -16.959,-0.39 -16.525,0.276c0.289,0.443 6.417,8.414 6.978,9.144c6.83,8.884 6.374,9.172 13.689,17.715c-0.568,0.567 -1.136,1.134 -1.704,1.701c-8.109,-9.117 -24.762,-28.942 -25.834,-28.947c-6.667,-0.034 -6.621,0.009 -13.264,-0.088c-3.067,-0.045 -6.816,-0.219 -6.015,0.518c15.029,13.844 29.416,26.065 32.021,28.277c0.837,0.711 0.711,1.154 1.772,0.879c0.443,0.575 0.428,0.525 0.888,1.026c0.598,0.651 -0.349,0.777 -11.049,0.159c-0.543,-0.458 -1.875,-1.582 -7.434,-4.857c-5.74,-3.383 -17.426,-11.32 -17.45,-10.289c-0.02,0.85 -0.179,7.59 0.039,10.626c-0.034,2.092 -0.035,2.047 -0.007,4.097c0.026,1.929 22.014,5.034 45.335,4.977c2.217,-0.005 14.152,-15.333 18.342,-16.279c9.964,-2.249 9.886,-2.41 19.784,-4.794c7.638,-1.84 9.431,5.367 11.26,3.722c1.846,-1.66 1.735,-1.758 21.182,-22.679c0.928,-0.998 -15.809,-11.385 -15.842,-13.42c-0.027,-1.646 6.697,-11.655 6.815,-11.788c1.298,-1.463 23.146,3.339 23.315,3.431c16.835,9.161 16.865,9.074 18.301,9.917c5.577,3.274 2.919,5.469 4.496,6.527c5.192,3.485 6.754,2.6 7.628,2.587c0.946,-0.015 6.442,3.7 6.977,4.061c0.702,0.475 1.839,14.86 -10.409,21.56c-2.126,1.163 -2.421,1.056 -7.115,-1.671c-2.459,-1.429 -2.218,-1.71 -3.049,-4.211c-0.252,-0.759 -6.629,-4.373 -7.146,-4.145c-1.514,0.668 -1.483,0.739 -3.133,0.583c-1.145,-0.108 -17.039,16.901 -19.691,20.001c-1.794,2.098 5.91,4.158 3.207,15.583c-1.19,5.029 -2.801,4.108 -6.901,4.86c-1.103,0.202 -2.626,6.221 -3.253,8.148c-1.458,4.479 -7.24,2.152 -8.067,4.626c-0.095,0.284 -0.051,0.288 -1.088,3.58c-1.169,3.714 -2.292,3.174 -7.099,4.482c-1.496,0.407 -0.899,0.985 -2.026,5.178c-1.041,3.872 -8.345,7.602 -17.556,3.922c-0.062,-0.025 -0.614,-0.678 -10.699,10.23c-5.274,5.704 -15.848,-2.899 -17.405,-4.578c-5.833,-6.285 -4.601,-8.398 -5.167,-8.824c-0.355,-0.267 -30.275,8.557 -38.776,12.162c-2.57,1.09 -2.187,1.64 -2.202,3.987c-0.001,0.19 0.072,0.636 2.374,-0.071c0.306,0.199 0.243,0.34 0.99,0.361c0.544,0.015 12.557,-0.765 14.253,0.026c-6.14,1.309 -6.314,0.338 -6.724,0.69c-0.877,0.754 0.398,0.101 1.537,0.31c1.803,0.331 15.769,0.356 17.99,-0.056c0.07,-0.199 0.028,-0.159 -0.136,-0.264c-0.818,-0.367 -0.794,-0.365 -0.978,-0.425c0.297,-0.228 0.14,-0.408 0.549,-0.421c3.888,-0.123 4.297,0.022 4.647,0.147c-0.631,0.309 -9.501,4.656 -7.51,4.556c6.742,-0.338 6.739,0.274 9.64,-0.32c1.375,0.292 14.679,0.493 16.193,0.1c0.465,0.177 2.644,0.149 2.874,0.146c0.401,-0.014 0.803,-0.028 1.204,-0.041c1.132,-0.001 2.264,-0.001 3.397,-0.002c0.237,-0.044 0.474,-0.089 0.711,-0.133c1.105,0.454 2.817,0.32 9.622,0.254c6.138,0.017 6.125,0.073 6.761,-0.046c0.948,0.22 11.739,0.235 12.793,0.013c0.888,0.012 1.775,0.025 2.663,0.037c0.462,0.029 4.418,0.272 5.789,-0.058c2.28,0.556 2.266,0.094 4.584,0.07c7.393,0.108 7.913,0.046 7.649,-0.508c-0.397,-0.833 -7.386,-9.455 -2.506,-4.96c5.791,5.335 5.784,5.511 6.898,5.531c5.587,0.101 5.833,0.004 6.301,-0.182c0.696,0.145 0.698,0.114 6.509,0.156l0.472,0.007c16.494,-0.121 33.531,-0.074 24.357,-0.584c-3.009,-0.167 -2.42,-1.893 -34.99,-13.966c-0.704,-0.261 -0.227,-0.633 -0.23,-0.667c5.861,1.661 8.034,2.882 11.588,3.971c25.585,7.838 26.971,7.908 29.406,8.031c7.891,0.399 9.167,-0.087 9.908,-0.369c0.875,0.094 2.202,0.478 4.807,0.371c4.937,-0.398 9.973,0.473 9.972,-0.728c-0.002,-5.665 0.014,-6.573 -0.365,-6.673c-0.204,-0.054 -53.609,-9.796 -61.712,-11.125c-3.381,-0.555 -3.487,-0.268 -5.056,-1.348c62.393,0.58 62.393,0.562 62.945,0.611c0.251,0.007 4.19,0.564 4.198,-0.517c0.008,-1.191 0.307,-4.964 -0.583,-4.982c-3.76,-0.075 -26.984,-0.537 -47.009,0.277c-0.861,0.035 -0.504,-0.354 -0.517,-0.371l0.056,-0.178c2.769,-0.376 47.66,-7.984 48.025,-8.949c0.106,-0.282 -0.034,-2.646 0.058,-10.644c0.026,-2.255 -0.431,-2.181 -0.6,-2.129c-20.688,6.405 -20.624,6.491 -41.502,12.225c-6.318,1.735 -6.496,1.772 -6.526,2.325c-1.037,0.201 -2.073,0.402 -3.11,0.603c0.038,-0.216 -0.163,-0.429 -0.125,-0.645c0.007,-0.037 0.005,-0.022 42.123,-20.994c9.07,-4.516 9.752,-4.372 9.738,-6.337c-0.115,-15.275 0.468,-16.603 -0.606,-15.916c-6.432,4.113 -6.429,4.024 -12.968,8.05c-1.91,1.176 -1.891,1.195 -23.86,14.737c-14.082,8.681 -13.99,9.431 -15.076,8.99c1.432,-1.263 7.208,-6.359 16.942,-16.818c0.659,0.228 1.005,-0.563 1.373,-0.801c2.001,-1.295 17.382,-15.452 18.869,-16.822c8.31,-7.65 15.753,-13.503 15.24,-14.489c-0.183,-0.352 -10.087,-0.354 -11.159,-0.212Z" style="fill:#050403;"/><g><path d="M45.87,133.235c118.991,0.557 166.275,-0.771 166.533,-0.275c0.079,0.152 -6.287,33.349 -6.861,33.505c-0.446,0.121 -15.758,-0.732 -16.026,-0.103c-0.21,0.493 0.315,5.493 -0.626,5.427c-28.178,-2 -57.831,-11.452 -124.21,-3.956c-2.758,0.311 -34.447,3.89 -34.477,3.87c-0.567,-0.372 0.195,-5.573 -0.712,-5.626c-1.888,-0.112 -15.687,0.643 -15.835,0.043c-0.042,-0.17 -6.688,-32.385 -6.774,-32.986c-0.07,-0.489 0.326,-0.425 16.075,-0.125c5.933,0.113 21.081,0.214 22.914,0.226Z" style="fill:#d90060;"/><path d="M186.484,66.996c-12.176,4.855 -33.544,14.624 -36.437,15.947c-11.677,5.339 -15.44,7.721 -15.665,7.749c-3.256,0.394 3.974,-1.62 14.419,-10.433c1.086,0.441 0.994,-0.31 15.076,-8.99c21.968,-13.543 21.949,-13.561 23.86,-14.737c6.54,-4.027 6.536,-3.938 12.968,-8.05c1.074,-0.686 0.49,0.641 0.606,15.916c0.015,1.965 -0.667,1.821 -9.738,6.337c-42.118,20.972 -42.116,20.957 -42.123,20.994c-0.038,0.216 0.163,0.429 0.125,0.645c-17.556,3.645 -25.91,6.198 -19.753,3.907c27.597,-10.269 27.472,-10.525 29.872,-11.41c9.692,-3.575 19.619,-13.674 26.912,-17.443c0.875,-0.594 -0.088,-0.44 -0.122,-0.431Z" style="fill:#d90060;"/><path d="M152.685,91.77c0.03,-0.553 0.208,-0.59 6.526,-2.325c20.877,-5.734 20.813,-5.82 41.502,-12.225c0.169,-0.052 0.626,-0.126 0.6,2.129c-0.092,7.998 0.048,10.362 -0.058,10.644c-0.365,0.965 -45.256,8.573 -48.025,8.949c-0.019,0.059 -0.037,0.118 -0.056,0.178c0.013,0.017 -0.344,0.406 0.517,0.371c20.024,-0.815 43.249,-0.352 47.009,-0.277c0.89,0.018 0.592,3.791 0.583,4.982c-0.008,1.082 -3.947,0.524 -4.198,0.517c0.169,-0.489 0.802,-0.37 0.403,-0.677c-0.051,-0.039 -58.384,-3.814 -71.045,-3.28l-0.185,-0.211c0.827,-0.7 0.916,-0.404 3.304,-0.675c2.583,-0.294 49.436,-8.923 49.64,-9.02c7.572,-3.582 7.482,-3.707 15.16,-7.009c5.012,-2.156 -38.359,7.212 -41.676,7.929Z" style="fill:#d90060;"/><path d="M145.934,171.335c-0.015,0.837 -0.26,0.73 -1.884,2.56c-0.473,0.533 0.49,0.531 8.409,-2.937c0.215,-0.094 2.33,0.34 4.612,0.723c1.251,0.21 -0.094,0.468 -1.238,0.972c-7.543,3.327 -39.515,16.364 -42.958,17.768c-4.516,1.841 -5.153,0.267 -17.053,-4.545c-2.669,-1.079 -32.114,-12.987 -33.26,-13.735c-0.463,-0.302 1.705,-0.72 1.863,-0.751c4.329,-0.835 4.152,0.596 10.87,2.962c0.932,0.328 -1.326,-1.983 -1.471,-2.132c-0.052,-0.053 -1.072,-1.097 -0.215,-0.905c2.97,0.664 5.698,1.274 35.675,13.222c1.81,0.722 23.081,-9.947 36.651,-13.203Z" style="fill:#d90060;"/><path d="M64.228,59.138c-1.499,1.467 -2.26,2.382 -3.163,2.392c-1.266,0.014 -15.119,-10.984 -15.136,-10.999c-3.348,-2.921 0.623,1.311 6.979,9.245c-1.06,0.275 -0.934,-0.167 -1.772,-0.879c-2.605,-2.212 -16.992,-14.433 -32.021,-28.277c-0.801,-0.737 2.948,-0.563 6.015,-0.518c6.643,0.097 6.597,0.054 13.264,0.088c1.072,0.006 17.725,19.831 25.834,28.947Z" style="fill:#d90060;"/><path d="M124.737,103.737c0.083,0.014 0.165,0.027 0.248,0.041c3.04,0.306 3.018,0.282 9.155,0.324c1.569,1.08 1.675,0.793 5.056,1.348c8.103,1.329 61.508,11.071 61.712,11.125c0.379,0.101 0.363,1.008 0.365,6.673c0,1.201 -5.036,0.33 -9.972,0.728c-0.552,-0.411 -57.306,-17.614 -63.449,-19.001c-2.396,-0.541 -2.377,-0.383 -4.765,-0.872c-1.8,-0.368 1.515,-0.367 1.65,-0.367Z" style="fill:#d90060;"/><path d="M135.592,111.973c0.003,0.034 -0.474,0.406 0.23,0.667c32.57,12.073 31.98,13.798 34.99,13.966c9.174,0.51 -7.863,0.463 -24.357,0.584c-0.087,-0.082 0.019,-0.102 -0.097,-0.212c-0.032,-0.03 -0,-0 -0.438,-0.323c-5.056,-3.881 -4.927,-3.978 -9.935,-7.879c-2.022,-1.575 -9.191,-6.158 -10.001,-6.676c-3.379,-2.16 8.377,2.815 5.934,1.067c-0.067,-0.048 -20.717,-9.257 -11.495,-6.192c9.87,3.28 63.777,15.884 66.072,16.631c-0.741,0.282 -2.018,0.768 -9.908,0.369c-2.436,-0.123 -3.821,-0.193 -29.406,-8.031c-3.554,-1.089 -5.727,-2.31 -11.588,-3.971Z" style="fill:#d90060;"/><path d="M75.142,93.928c0.005,-0.294 -0.339,-0.059 -0.334,-0.35c0.001,-0.059 0.001,-0.075 0.35,-0.652c1.127,-1.862 27.204,-29.66 27.209,-29.665c0.411,-0.433 3.798,2.028 3.288,2.563c-8.133,8.537 -13.573,13.069 -14.832,14.118c-10.038,8.363 -0.93,11.82 0.657,16.28c1.38,3.878 -0.746,3.421 -3.78,6.626c-1.991,2.104 -2.058,3.91 -3.597,2.168c-2.181,-2.468 -0.917,1.812 -0.917,2.791c0,2.687 -4.495,-2.972 -3.469,-0.487c2.454,5.947 0.557,6.329 0.242,5.97c-1.145,-1.309 0.225,-4.036 -9.732,-9.596c3.622,-4.01 4.528,-6.457 11.26,-14.028c3.343,-3.759 -2.684,1.933 -6.346,4.262Z" style="fill:#d90060;"/><path d="M190.065,31.117c1.072,-0.141 10.976,-0.14 11.159,0.212c0.513,0.986 -6.929,6.839 -15.24,14.489c-1.488,1.37 -16.868,15.527 -18.869,16.822c-0.368,0.238 -0.715,1.029 -1.373,0.801c3.964,-4.177 4.398,-4.193 4.024,-4.499c-0.223,-0.182 -19.345,13.764 -25.821,18.853c-0.157,0.123 -3.398,2.67 -2.232,1.116c1.214,-1.618 3.244,-3.01 16.245,-26.605c0.92,0.381 0.812,-0.175 2.239,-1.648c1.231,-1.27 1.968,-1.138 1.373,-2.287c0.304,-0.193 0.281,-0.176 0.304,-0.193c0.281,-0.205 0.193,-0.218 0.465,-0.416c0.512,1.291 0.444,1.371 1.651,2.025c6.118,3.318 6.041,3.355 8.284,4.404c0.525,0.246 6.533,-2.891 9.26,-5.349c8.892,-8.016 8.505,-17.467 8.531,-17.726Z" style="fill:#d90060;"/><path d="M73.665,49.771c-1.348,1.347 -3.604,3.978 -4.108,3.472c-0.433,-0.435 -4.107,-4.126 -5.273,-5.579c-3.83,-4.772 0.376,1.617 2.963,7.126c0.714,1.519 -0.154,1.386 -1.314,2.647c-7.315,-8.543 -6.859,-8.831 -13.689,-17.715c-0.561,-0.729 -6.689,-8.7 -6.978,-9.144c-0.434,-0.666 0.466,-0.258 16.525,-0.276c1.124,-0.001 2.883,4.564 11.875,19.468Z" style="fill:#d90060;"/><path d="M18.05,80.128c1.193,0.394 20.544,-4.015 19.114,-2.727c-0.604,0.544 -4.994,4.502 -8.048,6.205c-1.81,1.01 1.105,0.241 7.821,-0.94c17.987,-3.163 24.668,-4.836 19.85,-2.961c-5.152,2.005 -14.917,6.774 -36.192,14.695c-0.074,0.028 -0.02,0.077 -0.771,0.621c-1.34,0.206 -1.331,0.208 -1.447,0.222c-0.903,0.113 -0.479,-14.051 -0.327,-15.116Z" style="fill:#d90060;"/><path d="M140.309,28.551c0.149,0.09 6.789,4.827 6.873,5.21c0.169,0.77 -21.606,22.877 -21.947,23.185c-0.643,0.579 -6.874,-4.474 -7.014,-4.624c4.027,-4.084 20.179,-21.329 22.087,-23.77Z" style="fill:#d90060;"/><path d="M162.339,47.763c-0.271,0.197 -0.183,0.211 -0.465,0.416c-0.023,0.017 -0,0 -0.304,0.193c-0.941,0.801 -0.786,1.047 -1.977,1.26c0.219,-1.755 -0.699,0.085 -3.367,3.35c-12.322,15.08 -12.907,17.11 -13.072,15.497c-0.429,-4.188 -0.595,-4.155 -2.805,-8.37c0.601,-0.803 0.719,-0.676 2.001,-2.699c0.132,-0.261 0.264,-0.521 0.397,-0.782c0.204,-0.255 0.101,-0.242 -0.046,-0.561c1.056,-1.145 12.541,-13.599 14.589,-12.884c3.409,1.191 3.662,1.216 5.049,4.581Z" style="fill:#d90060;"/><path d="M20.284,122.206c2.752,-0.986 18.159,-6.506 35.012,-10.45c6.735,-1.577 -12.307,7.006 -12.376,7.035c-8.885,3.784 2.759,-0.072 15.268,-3.423c0.556,-0.149 2.356,1.959 2.529,2.162c0.417,0.489 -0.35,0.736 -8.306,5.044c-0.35,-0.125 -0.759,-0.27 -4.647,-0.147c-0.409,0.013 -0.252,0.193 -0.549,0.421c-2.108,-1.122 -4.316,-2.237 -11.688,-0.254c-1.696,-0.791 -13.709,-0.011 -14.253,-0.026c-0.747,-0.021 -0.684,-0.162 -0.99,-0.361Z" style="fill:#d90060;"/><path d="M90.008,43.223c-2.021,0.437 -4.453,1.049 -10.867,2.325c-0.622,-3.259 -6.259,-14.879 -5.533,-15.152c0.661,-0.249 11.314,-0.024 12.298,-0.003c1.25,0.026 2.118,6.011 4.103,12.83Z" style="fill:#d90060;"/><path d="M97.046,41.331c-1.004,-10.335 -1.154,-10.885 -0.283,-10.884c1.274,0.001 15.46,0.016 15.928,0.133c1.1,0.275 -0.684,9.516 0.303,10.997c-1.743,1.708 -2.019,0.612 -3.512,-0.22c-3.839,-2.141 -4.371,-2.03 -12.437,-0.026Z" style="fill:#d90060;"/><path d="M17.902,56.441c-0.219,-3.036 -0.059,-9.776 -0.039,-10.626c0.024,-1.031 11.71,6.906 17.45,10.289c5.558,3.276 6.891,4.399 7.434,4.857c-22.765,-1.648 -22.353,-4.674 -24.844,-4.521Z" style="fill:#d90060;"/><path d="M121.131,127.146c0.017,-1.466 -12.248,-19.104 -8.302,-15.124c4.206,4.242 14.636,14.179 12.056,10.782c-5.113,-6.732 -4.295,-7.355 -10.243,-13.334c-4.275,-4.297 8.571,6.505 22.875,16.181c1.006,0.68 0.967,0.68 1.956,1.375c-0.469,0.186 -0.715,0.284 -6.301,0.182c-1.114,-0.02 -1.107,-0.196 -6.898,-5.531c-4.88,-4.495 2.109,4.127 2.506,4.96c0.264,0.554 -0.256,0.616 -7.649,0.508Z" style="fill:#d90060;"/><path d="M102.68,123.812c-0.013,0.328 -0.006,0.283 0.119,0.607c0.525,-0.383 1.499,-9.925 2.692,-10.501c1.744,-0.842 1.853,-0.471 1.87,-0.32c0.372,3.426 0.363,3.976 0.735,13.498c-1.054,0.223 -11.844,0.208 -12.793,-0.013c0.807,-2.445 3.792,-12.041 4.337,-12.098c0.191,-0.02 2.309,-0.239 2.377,0.307c0.112,0.899 0.609,4.188 0.663,8.519Z" style="fill:#d90060;"/><path d="M78.92,126.876c1.857,-1.86 2.13,-1.45 4.244,-3.023c0.954,-0.71 8.361,-9.425 9.493,-9.365c2.416,0.128 2.453,0.372 2.369,0.547c-1.352,2.791 -5.049,9.096 -6.485,12.095c-6.805,0.066 -8.517,0.2 -9.622,-0.254Z" style="fill:#d90060;"/><path d="M72.399,124.692c-0.294,0.437 -1.179,1.513 -1.285,1.642c-0.127,0.191 -0.253,0.382 -0.38,0.573c-1.513,0.393 -14.817,0.192 -16.193,-0.1c1.213,-0.756 10.15,-5.574 10.618,-5.473c0.624,0.134 0.266,0.909 7.24,3.358Z" style="fill:#d90060;"/><path d="M110.758,127.134c0.02,-1.863 -0.556,-2.149 -2.436,-13.778c-0.67,-4.144 7.655,12.575 8.225,13.721c-1.371,0.33 -5.327,0.086 -5.789,0.058Z" style="fill:#d90060;"/><path d="M159.463,143.004c1.288,0.125 1.397,-0.029 1.57,0.333c0.519,1.086 0.145,12.133 0.109,13.187c-0.044,1.287 -2.592,0.609 -2.677,0.6c0.338,-0.626 0.321,-0.604 0.32,-1.322c-0.012,-5.903 -0.062,-9.692 -0.002,-10.602c0.044,-0.66 1.661,-0.617 1.675,-0.689c0.023,-0.118 -0.259,-0.155 -0.236,-0.274c0.088,-0.287 0.194,-0.298 -0.033,-0.497c-0.025,-0.032 0.033,-0.083 -0.726,-0.735Z" style="fill:#d90060;"/><path d="M144.133,143.988c0.015,5.306 0.011,5.258 -0.012,10.607c-0.01,2.402 -1.233,1.596 -2.764,1.541c0.071,-0.274 0.3,-0.038 0.377,-0.335c0.024,-0.093 0.015,-0.058 0.022,-1.207c0.056,-8.666 0,-8.655 0.011,-9.407c0.019,-1.348 0.86,-0.461 2.366,-1.199Z" style="fill:#d90060;"/><path d="M48.225,144.462c0.018,3.475 0.25,3.508 -0.126,4.373c-0.336,0.773 -0.574,0.387 -2.219,0.496c-0.019,-0.645 -0.045,-0.612 -0.036,-1.249c0.043,-3.04 -0.312,-5.006 2.381,-3.621Z" style="fill:#d90060;"/><path d="M161.57,48.371c0.595,1.149 -0.142,1.017 -1.373,2.287c-1.427,1.472 -1.319,2.029 -2.239,1.648l1.634,-2.674c1.191,-0.213 1.036,-0.459 1.977,-1.26Z" style="fill:#d90060;"/><path d="M135.352,83.939c-0.237,0.2 -3.466,3.293 -1.634,0.023c0.302,-0.538 5.226,-2.773 1.634,-0.023Z" style="fill:#d90060;"/><path d="M73.645,125.095c1.06,0.501 0.083,0.791 -0.038,1.958c-0.23,0.003 -2.409,0.031 -2.874,-0.146c0.127,-0.191 0.253,-0.382 0.38,-0.573c0.046,0.012 0.057,0.617 1.225,-0.062c0.776,-0.451 0.772,-0.402 1.306,-1.177Z" style="fill:#d90060;"/><path d="M75.294,126.871c0.884,-0.004 1.768,-0.007 2.652,-0.011l0.262,0.149c-1.132,0.001 -2.264,0.001 -3.397,0.002c0.161,-0.047 0.321,-0.094 0.482,-0.14Z" style="fill:#d90060;"/><path d="M75.294,126.871c0.321,-0.037 1.361,-0.579 2.652,-0.011c-0.884,0.004 -1.768,0.007 -2.652,0.011Z" style="fill:#d90060;"/><path d="M186.484,66.996c0.035,-0.01 0.997,-0.164 0.122,0.431c-0,-0.036 -0.015,-0.029 -0.122,-0.431Z" style="fill:#d90060;"/><path d="M145.919,126.655c0.438,0.323 0.406,0.294 0.438,0.323c0.116,0.109 0.01,0.13 0.097,0.212l-0.472,-0.007c-0.021,-0.176 -0.042,-0.352 -0.063,-0.528Z" style="fill:#d90060;"/><path d="M113.037,144.248l0.11,0.701c-0.006,-0.017 -0.43,0.027 -0.11,-0.701Z" style="fill:#d90060;"/><path d="M48.193,123.272c0.164,0.105 0.207,0.065 0.136,0.264l-0.136,-0.264Z" style="fill:#d90060;"/><path d="M160.19,143.739c0.227,0.2 0.121,0.21 0.033,0.497c-0.011,-0.166 -0.022,-0.332 -0.033,-0.497Z" style="fill:#d90060;"/><path d="M102.68,123.812c0.04,0.202 0.079,0.405 0.119,0.607c-0.125,-0.324 -0.132,-0.279 -0.119,-0.607Z" style="fill:#d90060;"/><path d="M72.399,124.692l1.246,0.403c-0.535,0.776 -0.531,0.727 -1.306,1.177c-1.168,0.679 -1.18,0.074 -1.225,0.062c0.106,-0.129 0.992,-1.204 1.285,-1.642Z" style="fill:#d90060;"/></g><g><path d="M18.05,80.128c-0.474,-1.469 -0.066,-6.705 3.034,-8.135c0.544,-0.251 15.394,-1.264 43.116,-1.523c1.136,-0.011 7.705,-7.197 17.226,-16.093c0.751,-0.701 16.514,-5.792 23.774,-5.953c0.899,-0.02 0.756,0.302 9.853,5.407c1.343,0.754 -5.258,3.138 0.076,6.644c2.175,1.43 2.408,0.834 4.687,2.101c1.492,0.83 -9.282,2.611 -14.08,-1.616c-2.392,-2.108 -2.646,-2.341 -1.863,-5.468c0.758,-3.027 -0.937,0.424 -4.033,2.775c-0.918,0.697 -0.405,-0.384 -0.392,-3.049c0.006,-1.259 -1.474,1.927 -1.592,2.122c-2.745,4.505 -4.063,3.237 -8.603,0.61c-1.297,-0.75 0.576,2.845 0.788,4.038c0.071,0.399 -0.329,0.655 -4.868,-1.393c-1.604,-0.724 0.051,0.627 2.785,3.902c0.935,1.12 0.381,1.305 -0.786,2.152c-16.549,12.008 -16.482,12.077 -17.958,13.066c-0.536,0.359 -0.297,-0.312 -1.885,-7.836c-0.073,-0.345 -0.42,-0.213 -3.047,3.188c-1.566,2.029 -0.857,9.305 -2.266,10.053c-0.47,0.249 -0.606,-0.144 -1.457,-6.483c-0.29,-2.16 -1.873,5.911 -2.869,6.261c-11.097,3.902 -34.811,9.415 -37.865,10.125c0.751,-0.544 0.697,-0.593 0.771,-0.621c21.275,-7.921 31.04,-12.69 36.192,-14.695c4.819,-1.875 -1.863,-0.202 -19.85,2.961c-6.716,1.181 -9.631,1.95 -7.821,0.94c3.053,-1.704 7.444,-5.661 8.048,-6.205c1.43,-1.289 -17.921,3.121 -19.114,2.727Z" style="fill:#fff;"/><path d="M166.725,140.848c0.417,19.176 0.244,19.411 -0.743,20.747c-1.274,1.725 -10.23,1.482 -12.764,-0.754c-1.009,-1.764 -0.916,-1.802 -0.919,-4.318c-0.024,-16.825 -0.568,-18.763 3.546,-18.862c9.772,-0.233 10.271,0.512 10.88,3.186Z" style="fill:#fff;"/><path d="M149.717,140.604c0.163,18.304 0.034,18.326 -0.442,19.265c-1.324,2.613 -11.052,1.721 -13.116,-0.067c-1.399,-2.212 -1.018,-2.344 -0.992,-4.967c0.128,-13.297 -1.043,-17.266 3.556,-17.329c8.882,-0.122 10.318,-0.2 10.994,3.098Z" style="fill:#fff;"/><path d="M53.705,140.599c0.121,10.011 0.622,10.571 -1.935,12.669c-0.432,0.354 -0.095,0.453 0.468,2.258c2.059,5.974 2.061,6.01 2.092,6.56c-0.691,0.565 -4.833,0.585 -5.322,0.601c-0.538,-0.594 -0.315,-0.706 -2.351,-6.893c-0.059,-0.162 -0.992,-2.726 -1.572,-1.478c-0.218,0.467 -0.006,7.546 -0.171,8.242c-0.131,0.551 -4.477,0.686 -5.071,0.734c-0.554,-0.343 -0.53,-0.53 -0.498,-22.684c0.002,-1.501 -0.269,-3.22 0.736,-3.223c11.073,-0.035 13.007,-0.53 13.626,3.216Z" style="fill:#fff;"/><path d="M84.2,138.676c-0.039,21.446 0.326,22.088 -0.712,22.149c-4.198,0.247 -4.2,0.013 -4.295,-0.017c-2.598,-6.572 -3.836,-14.971 -3.713,-8.143c0.012,0.653 0.141,7.843 -0.027,8.164c-0.257,0.49 -3.894,0.467 -4.741,0.498c-0.708,-0.4 -0.379,-0.669 -0.478,-20.72c-0.001,-0.26 -0.016,-3.144 0.461,-3.222c0.234,-0.038 4.263,-0.232 4.536,0.358c2.697,5.84 3.568,13.894 3.588,7.445c0.023,-7.087 -0.65,-7.796 0.563,-7.814c0.683,-0.01 4.262,-0 4.372,0.007c0.396,0.026 0.248,0.203 0.445,1.294Z" style="fill:#fff;"/><path d="M67.668,138.922c-0.081,3.081 0.464,3.643 -0.567,3.667c-0.36,0.009 -4.959,-0.288 -4.979,0.673c-0.006,0.287 -0.068,3.276 0.011,3.588c0.109,0.429 0.232,0.265 0.628,0.365c0.306,-0.004 3.769,-0.046 3.827,-0.019c0.458,0.212 0.247,0.334 0.335,1.129c-0.027,3.056 0.369,3.357 -0.334,3.564c-0.31,0.091 -4.463,-0.27 -4.465,1.018c-0,0.268 -0.003,3.291 0.019,3.348c0.171,0.454 0.286,0.254 0.861,0.329c4.407,-0.076 4.401,-0.131 4.562,-0.034c0.461,0.275 0.224,0.398 0.257,1.663c-0.152,2.315 0.781,3.224 -0.976,3.301c-5.067,0.223 -5.022,0.478 -10.114,0.521c-0.716,-0.994 -0.32,-1.132 -0.374,-22.151c-0.001,-0.207 -0.006,-2.508 0.595,-2.513c0.812,-0.007 8.436,-0.076 10.15,0.029c0.98,0.06 0.51,0.532 0.564,1.523Z" style="fill:#fff;"/><path d="M175.173,139.406c-0.065,18.35 -0.158,18.755 0.69,18.947c0.365,0.028 4.437,0.339 4.561,0.39c0.463,0.191 0.243,0.327 0.332,1.404c-0.004,0.332 -0.047,4.022 -0.287,4.136c-0.362,0.172 -0.351,0.03 -9.906,-0.841c-0.973,-0.224 -1.151,-0.265 -1.142,-1.37c0.19,-23.68 -0.228,-24.289 0.658,-24.293c3.275,-0.017 4.812,-1.616 5.094,1.628Z" style="fill:#fff;"/><path d="M133.253,138.926c-0.005,0.318 -0.06,3.94 -0.554,3.937c-2.679,-0.015 -3.167,-0.501 -3.188,0.388c-0.028,1.167 0.031,15.389 -0.046,16.631c-0.032,0.522 -4.357,0.412 -4.737,0.403c-2.279,-0.514 -0.972,-1.449 -0.987,-3.762c-0.009,-1.346 0.011,-11.097 0.013,-12.062c-0.01,-1.416 0.06,-1.422 -0.093,-1.567c-0.159,-0.151 -0.161,-0.083 -2.789,-0.17c-1.528,-0.546 -0.698,-5.19 -0.472,-5.239c0.4,-0.086 12.15,-0.041 12.296,-0.038c0.966,0.022 0.494,0.511 0.558,1.478Z" style="fill:#fff;"/><path d="M98.871,138.905c-0.011,1.103 0.228,3.814 -0.667,3.813c-2.284,-0.001 -2.601,-0.456 -2.847,0.315c-0.349,1.093 0.657,17.443 -0.54,17.494c-0.365,0.016 -0.339,0.005 -4.572,0.062c-0.635,-0.289 -0.534,-0.517 -0.536,-16.13c-0.026,-1.274 0.18,-1.331 -0.216,-1.635c-0.192,-0.148 -0.186,-0.076 -2.88,-0.137c-1.092,-0.4 -0.816,-5.291 0.01,-5.299c5.609,-0.05 10.435,-0 11.343,0.009c1.108,0.011 0.831,0.442 0.905,1.508Z" style="fill:#fff;"/><path d="M120.806,86.245c-3.572,0.602 -3.498,-0.139 -6.667,-1.862c-0.035,-0.019 -0.73,-0.608 -1.618,0.36c-2.278,2.483 -2.142,2.956 -2.962,2.733c-4.969,-1.352 -10.951,-9.204 -10.798,-10.045c0.12,-0.657 2.651,-6.153 5.889,-4.003c1.753,1.164 7.568,5.722 8.217,6.231c7.759,6.082 7.771,6.126 7.94,6.586Z" style="fill:#fff;"/><path d="M126.163,77.458c-1.09,-0.61 -1.065,-0.586 -2.167,-1.213c-1.073,-0.611 -2.823,2.638 -3.411,3.301c-1.338,1.508 -10.221,-5.856 -11.009,-6.509c-3.835,-3.179 0.044,-5.904 0.968,-6.388c2.708,-1.422 12.867,4.725 13.91,5.515c2.17,1.643 4.76,6.656 1.709,5.294Z" style="fill:#fff;"/><path d="M112.138,143.025c3.032,14.608 3.968,15.422 2.713,15.466c-1.711,0.059 -1.681,0.131 -3.373,-0.068c-0.627,-0.693 -0.409,-0.758 -0.645,-1.412c-0.408,-1.842 -0.84,-1.747 -2.736,-1.662c-0.426,0.019 -0.932,2.178 -0.979,2.379c-0.288,1.23 -2.501,0.825 -3.365,0.83c-1.497,-0.217 -0.76,-1.024 2.041,-15.031c0.678,-3.391 1.979,-2.207 5.444,-2.03c1.055,0.054 0.646,0.518 0.9,1.527Z" style="fill:#fff;"/><path d="M94.587,81.348c4.541,0.753 17.016,13.311 17.009,13.33c-0.598,1.429 -3.234,-0.045 -3.477,-0.181c-3.168,-1.772 -2.819,-3.453 -5.286,-2.491c-2.397,0.935 -1.578,1.657 -1.776,4.216c-0.083,1.076 -5.132,-2.306 -6.648,-4.378c-3.442,-4.707 -6.376,-5.5 -2.124,-9.486c0.949,-0.89 0.976,-0.819 2.302,-1.01Z" style="fill:#fff;"/><path d="M187.654,157.722c1.123,-3.319 1.973,-5.252 1.433,-5.731c-2.203,-1.952 -4.893,-3.541 -5.345,-3.808c-1.558,-0.92 1.173,-0.669 6.59,-0.673c1.123,-0.001 2.295,-5.777 2.95,-7.083c0.394,-0.785 0.392,0.266 2.423,6.186c0.387,1.128 2.411,0.914 6.447,0.943c3.262,0.023 -0.205,1.307 -4.311,4.424c-0.295,0.224 -0.39,0.37 1.479,6.214c0.843,2.638 -1.163,0.225 -5.399,-2.589c-0.709,-0.471 -0.977,0.015 -5.958,3.422c-1.322,0.904 -0.486,-0.795 -0.309,-1.305Z" style="fill:#fff;"/><path d="M31.166,156.763c0.061,0.186 0.933,2.859 0.228,2.429c-2.799,-1.707 -5.045,-4.454 -6.686,-3.305c-4.467,3.127 -5.699,4.673 -5.199,3.044c1.595,-5.2 3.397,-5.765 0.954,-7.598c-3.55,-2.664 -6.719,-3.807 -3.779,-3.816c6.185,-0.019 6.531,-0.108 6.655,-0.445c1.984,-5.39 2.207,-7.863 2.864,-5.782c1.795,5.688 1.855,6.18 3.27,6.206c5.649,0.102 7.463,-0.405 6.177,0.495c-2.869,2.006 -2.84,1.949 -5.603,4.047c-0.307,0.233 1.001,4.355 1.119,4.726Z" style="fill:#fff;"/><path d="M140.309,28.551c-1.908,2.441 -18.06,19.686 -22.087,23.77c-1.042,-0.242 -2.28,-1.498 -2.17,-1.913c0.056,-0.21 19.393,-20.936 20.8,-22.372c1.467,-1.497 1.735,-0.644 3.458,0.514Z" style="fill:#fff;"/><path d="M57.25,97.638c-0.338,-2.776 -0.82,-3.633 -1.293,-4.519c-1.201,-2.249 -3.267,1.327 -5.55,4.272c-1.138,1.468 -0.171,-0.969 -1.435,-2.334c-0.653,-0.706 -16.837,2.864 -18.287,3.184c-17.507,3.862 25.741,-7.857 27.493,-8.184c0.607,-0.113 1.374,0.334 -0.731,7.687l-0.197,-0.106Z" style="fill:#fff;"/><path d="M134.339,67.299c0.011,0.21 0.166,3.165 -0.398,2.595c-2.094,-2.114 -2.303,-4.274 -4.249,-1.973c-3.94,4.659 -7.857,0.311 -4.854,-4.182c2.074,-3.102 2.882,-3.408 5.861,-1.185c2.715,2.026 3.486,4.292 3.64,4.745Z" style="fill:#fff;"/><path d="M180.435,27.274c0.576,0.416 1.422,0.558 0.327,1.517c-9.857,8.622 -8.657,19.852 -9.262,14.872c-0.131,-1.074 2.766,-8.525 2.379,-8.869c-0.4,-0.357 -3.346,-1.779 -2.973,-2.417c1.618,-2.768 6.024,-7.102 7.132,-6.579c0.205,0.096 2.207,1.357 2.397,1.477Z" style="fill:#fff;"/><path d="M152.686,25.129c3.279,1.837 4.177,1.616 3.539,2.545c-1.109,1.614 -1.07,2.729 -2.714,1.635c-4.738,-3.152 -11.57,-8.623 -25.107,-17.068c-8.199,-5.116 9.472,4.734 24.282,12.889Z" style="fill:#fff;"/><path d="M73.604,86.386c1.152,0.249 2.28,0.106 1.317,0.787c-1.31,0.927 -10.56,9.658 -10.445,8.329c0.061,-0.715 0.749,-8.719 0.927,-8.921c0.448,-0.509 7.829,-0.201 8.202,-0.195Z" style="fill:#fff;"/><path d="M75.142,93.928c3.662,-2.329 9.689,-8.021 6.346,-4.262c-6.732,7.57 -7.639,10.018 -11.26,14.028c-2.357,-0.69 -4.193,-1.14 -4.56,-1.23c-1.257,-0.308 8.665,-7.915 9.474,-8.536Z" style="fill:#fff;"/><path d="M166.193,27.784c-0.324,-0.175 -4.671,-2.114 -4.011,-2.885c0.301,-0.352 3.545,-4.143 4.033,-4.163c0.424,-0.018 6.34,3.949 6.495,4.12c0.21,0.232 -2.506,3.473 -2.745,3.758c-0.926,1.105 -3.388,-0.651 -3.772,-0.83Z" style="fill:#fff;"/><path d="M140.562,5.422c-1.693,2.328 -1.398,4.047 -3.989,2.74c-0.752,-0.38 -9.025,-4.553 -9.356,-4.839c-0.819,-0.706 0.545,-0.239 13.346,2.099Z" style="fill:#fff;"/><path d="M35.527,122.593c7.372,-1.983 9.58,-0.868 11.688,0.254c0.184,0.06 0.16,0.058 0.978,0.425l0.136,0.264c-2.221,0.413 -16.187,0.387 -17.99,0.056c-1.139,-0.209 -2.413,0.444 -1.537,-0.31c0.41,-0.352 0.584,0.619 6.724,-0.69Z" style="fill:#fff;"/><path d="M122.844,59.035c0.149,0.14 1.705,1.602 -1.732,1.885c-0.247,0.02 -7.208,-2.155 -5.963,-4.45c0.072,-0.134 0.803,-1.48 1.135,-1.524c0.23,-0.03 0.569,0.223 6.56,4.089Z" style="fill:#fff;"/><path d="M161.382,28.96c5.432,3.587 6.111,3.418 5.726,4.295c-0.748,1.706 -0.833,2.805 -2.257,1.613c-5.823,-4.875 -5.691,-5.071 -5.633,-5.201c0.051,-0.114 0.52,-1.159 0.793,-1.353c0.216,-0.154 0.227,-0.019 1.371,0.646Z" style="fill:#fff;"/><path d="M100.408,101.024c0.276,0.332 3.919,4.721 2.598,4.735c-3.464,0.037 -3.909,-2.409 -3.979,-2.792c-0.165,-0.903 -0.311,-2.776 -0.271,-2.852c0.071,-0.133 0.24,-0.32 1.652,0.909Z" style="fill:#fff;"/></g><g><path d="M166.725,140.848c1.356,1.121 0.931,1.423 0.946,10.612c0.017,10.525 1.192,13.588 -5.077,13.066c-5.097,-0.424 -9.616,-0.013 -9.375,-3.685c2.534,2.236 11.49,2.479 12.764,0.754c0.986,-1.336 1.16,-1.571 0.743,-20.747Z" style="fill:#130d0b;"/><path d="M149.717,140.604c0.47,0.5 0.922,0.383 0.918,3.137c-0.019,17.065 0.133,17.183 -0.609,18.31c-1.588,2.412 -12.167,1.113 -13.378,-0.538c-0.845,-1.152 -0.542,-1.252 -0.489,-1.712c2.064,1.788 11.792,2.68 13.116,0.067c0.476,-0.939 0.605,-0.961 0.442,-19.265Z" style="fill:#100a09;"/><path d="M133.253,138.926c1.248,0.206 0.995,1.439 0.9,5.058c-0.038,1.434 -3.712,-0.181 -3.741,1.192c-0.188,9.144 0.377,17.077 -0.618,17.047c-2.591,-0.079 -5.257,-0.045 -5.29,-0.635c-0.04,-0.709 0.111,-0.642 0.224,-1.301c0.38,0.01 4.705,0.12 4.737,-0.403c0.076,-1.243 0.018,-15.465 0.046,-16.631c0.021,-0.889 0.509,-0.403 3.188,-0.388c0.494,0.003 0.549,-3.619 0.554,-3.937Z" style="fill:#0e0908;"/><path d="M98.871,138.905c1.511,-0.07 0.951,3.525 0.923,4.594c-0.038,1.406 -2.654,0.803 -3.284,0.951c-0.997,0.234 -0.367,0.755 -0.32,12.799c0.013,3.295 1.485,4.924 -1.844,5.04c-2.723,0.095 -3.867,1.014 -4.101,-1.7c4.234,-0.057 4.207,-0.046 4.572,-0.062c1.197,-0.051 0.191,-16.401 0.54,-17.494c0.246,-0.77 0.563,-0.316 2.847,-0.315c0.896,0.001 0.656,-2.71 0.667,-3.813Z" style="fill:#190c0b;"/><path d="M84.2,138.676c0.072,0.012 0.876,-0.054 0.883,0.734c0.009,1.019 0.042,22.049 -0.076,22.924c-0.076,0.56 -5.005,0.676 -5.179,0.253c-0.057,-0.14 -0.034,-0.121 -0.635,-1.778c0.095,0.029 0.097,0.263 4.295,0.017c1.037,-0.061 0.673,-0.703 0.712,-22.149Z" style="fill:#160a08;"/><path d="M67.823,158.213c1.292,0.111 0.923,1.501 0.744,4.584c-0.054,0.94 -2.645,0.794 -9.431,1.224c-0.177,0.011 -2.182,0.138 -2.162,-0.503c0.012,-0.405 0.273,-0.546 -0.242,-1.483c5.092,-0.043 5.047,-0.298 10.114,-0.521c1.757,-0.077 0.824,-0.986 0.976,-3.301Z" style="fill:#0d0706;"/><path d="M180.756,160.147c2.929,1.316 0.945,2.327 0.888,5.542c-0.015,0.849 -0.551,0.64 -10.608,-0.451c-0.831,-0.09 -1.803,-1.104 -0.473,-1.796c9.555,0.872 9.545,1.013 9.906,0.841c0.24,-0.114 0.283,-3.804 0.287,-4.136Z" style="fill:#0f0808;"/><path d="M46.657,155.793c-1.87,0.885 0.184,9.152 -1.506,9.225c-3.31,0.143 -4.978,2.033 -5.179,-1.297c-0.002,-0.036 0,0 -0.13,-0.431c0.594,-0.048 4.941,-0.183 5.071,-0.734c0.165,-0.696 -0.047,-7.774 0.171,-8.242c0.581,-1.247 1.513,1.316 1.572,1.478Z" style="fill:#120b0a;"/><path d="M175.173,139.406c0.662,0.005 0.919,-0.206 0.929,0.478c0.025,1.84 -0.019,8.953 -0.01,12.541c0.008,3.212 0.153,5.431 -0.229,5.929c-0.848,-0.192 -0.755,-0.597 -0.69,-18.947Z" style="fill:#150c0b;"/><path d="M144.133,143.988c-1.505,0.738 -2.347,-0.149 -2.366,1.199c-0.011,0.752 0.045,0.741 -0.011,9.407c-0.007,1.149 0.002,1.113 -0.022,1.207c-0.077,0.297 -0.306,0.061 -0.377,0.335c-0.183,-0.092 -0.615,-0.089 -0.608,-1.06c0.069,-8.842 -0.064,-10.358 0.047,-11.833c0.035,-0.464 3.039,-1.853 3.337,0.744Z" style="fill:#1c0e0c;"/><path d="M112.138,143.025c0.638,0.45 0.515,0.531 0.899,1.223c-0.32,0.728 0.104,0.685 0.11,0.701c2.557,13.824 2.961,13.732 3.048,14.95c0.034,0.481 -2.791,0.496 -3.037,0.497c-1.521,0.008 -1.266,-0.518 -1.68,-1.974c1.692,0.2 1.662,0.127 3.373,0.068c1.255,-0.043 0.319,-0.857 -2.713,-15.466Z" style="fill:#2f1816;"/><path d="M67.668,138.922c1.748,0.679 0.906,1.25 0.872,3.131c-0.059,3.277 -1.527,2.266 -4.824,2.318c-1.123,0.018 -0.64,0.576 -0.955,2.845c-0.396,-0.1 -0.519,0.064 -0.628,-0.365c-0.08,-0.313 -0.017,-3.301 -0.011,-3.588c0.02,-0.961 4.619,-0.665 4.979,-0.673c1.031,-0.025 0.486,-0.586 0.567,-3.667Z" style="fill:#1c100f;"/><path d="M66.923,148.326c2.044,0.79 0.884,4.709 0.767,5.105c-0.208,0.704 -4.739,0.001 -4.762,1.159c-0.021,1.021 0.037,0.982 0.075,1.995c-0.575,-0.075 -0.69,0.125 -0.861,-0.329c-0.022,-0.057 -0.019,-3.081 -0.019,-3.348c0.001,-1.287 4.155,-0.927 4.465,-1.018c0.704,-0.206 0.307,-0.508 0.334,-3.564Z" style="fill:#1b110f;"/><path d="M110.833,157.01c-2.051,0.213 -2.359,-0.058 -2.492,0.722c-0.036,0.211 -0.419,2.467 -0.753,2.571c-0.647,0.202 -4.295,0.248 -4.155,-0.407c0.104,-0.486 0.04,-0.441 0.103,-0.93c0.02,-0.153 0.198,-0.255 0.218,-0.408c0.864,-0.005 3.077,0.399 3.365,-0.83c0.047,-0.2 0.552,-2.359 0.979,-2.379c1.895,-0.086 2.328,-0.181 2.736,1.662Z" style="fill:#130b0a;"/><path d="M53.705,140.599c1.328,0.851 1.494,12.115 -0.164,13.95c-0.087,0.097 -0.131,0.145 -1.304,0.976c-0.563,-1.804 -0.9,-1.903 -0.468,-2.258c2.557,-2.097 2.057,-2.658 1.935,-12.669Z" style="fill:#180d0b;"/><path d="M159.463,143.004c0.759,0.652 0.702,0.703 0.726,0.735c0.011,0.166 0.022,0.332 0.033,0.497c-0.023,0.118 0.259,0.155 0.236,0.274c-0.014,0.072 -1.631,0.029 -1.675,0.689c-0.061,0.911 -0.011,4.7 0.002,10.602c0.001,0.718 0.018,0.696 -0.32,1.322c-0.755,-0.466 -0.568,-1.003 -0.587,-10.247c-0.005,-2.558 -0.993,-3.715 1.585,-3.872Z" style="fill:#241210;"/><path d="M54.33,162.086c0.756,0.174 1.458,2.148 -0.026,2.281c-3.421,0.305 -5.004,1.784 -5.296,-1.68c0.489,-0.016 4.631,-0.036 5.322,-0.601Z" style="fill:#0f0707;"/><path d="M48.225,144.462c-2.693,-1.386 -2.338,0.581 -2.381,3.621c-0.009,0.637 0.017,0.604 0.036,1.249c-0.655,-0.051 -0.888,0.117 -0.9,-0.53c-0.11,-5.881 0.059,-6.336 0.646,-6.331c0.188,0.001 2.135,0.015 2.34,0.163c0.187,0.135 0.11,0.138 0.259,1.829Z" style="fill:#140e0d;"/><path d="M108.902,145.986c0.438,0.153 0.452,0.284 0.945,5.717c0.073,0.805 -1.751,0.681 -1.667,-0.001c0.652,-5.268 0.672,-5.258 0.722,-5.716Z" style="fill:#312120;"/><path d="M86.612,142.686c2.693,0.061 2.688,-0.011 2.88,0.137c0.396,0.304 0.191,0.361 0.216,1.635c-1.55,-0.34 -3.362,0.995 -3.096,-1.772Z"/><path d="M120.871,142.725c2.628,0.088 2.63,0.019 2.789,0.17c0.153,0.145 0.083,0.151 0.093,1.567c-1.627,-0.295 -3.366,0.832 -2.882,-1.737Z" style="fill:#180605;"/><path d="M142.701,56.066c0.147,0.319 0.251,0.306 0.046,0.561c-0.132,0.261 -0.264,0.521 -0.397,0.782c-1.282,2.023 -1.401,1.896 -2.001,2.699c-0.57,-1.307 0.556,-1.998 2.352,-4.042Z" style="fill:#1e100e;"/></g></g></svg>